<?xml version="1.0" standalone="no"?>
<!DOCTYPE svg PUBLIC "-//W3C//DTD SVG 20010904//EN"
 "http://www.w3.org/TR/2001/REC-SVG-20010904/DTD/svg10.dtd">
<svg version="1.0" xmlns="http://www.w3.org/2000/svg"
 width="512.000000pt" height="512.000000pt" viewBox="0 0 512.000000 512.000000"
 preserveAspectRatio="xMidYMid meet">
<metadata>
Created by potrace 1.11, written by Peter Selinger 2001-2013
</metadata>
<g transform="translate(0.000000,512.000000) scale(0.100000,-0.100000)"
fill="#000000" stroke="none">
<path d="M1278 4482 l-1078 -637 0 -1282 c0 -706 2 -1283 4 -1283 2 0 487 285
1077 634 l1074 635 3 -1275 c1 -701 5 -1274 10 -1274 4 0 493 288 1087 638
l1080 639 3 1282 c2 1088 0 1282 -12 1278 -7 -3 -494 -289 -1081 -636 -588
-347 -1070 -631 -1072 -631 -1 0 -3 574 -3 1275 0 701 -3 1275 -7 1274 -5 0
-493 -287 -1085 -637z"/>
</g>
</svg>
